<svg width="680" height="680" viewBox="0 0 680 680" xmlns="http://www.w3.org/2000/svg">
<style>
  .bg { fill: #0f172a; }
  .ring1 { stroke: #3b82f6; }
  .ring2 { stroke: #2563eb; }
  .ring3 { stroke: #1d4ed8; }
  .core { fill: #3b82f6; }
  .pulse { fill: #1e3a8a; }
  .node { fill: #60a5fa; stroke: #0f172a; }
  .line { stroke: #3b82f6; }
</style>

<rect width="680" height="680" rx="120" class="bg"/>

<circle cx="340" cy="340" r="220" fill="none" class="ring3" stroke-width="1" opacity="0.2"/>
<circle cx="340" cy="340" r="170" fill="none" class="ring2" stroke-width="1" opacity="0.3"/>
<circle cx="340" cy="340" r="120" fill="none" class="ring1" stroke-width="1.5" opacity="0.5"/>

<line x1="340" y1="210" x2="210" y2="420" stroke-width="1.5" class="line" opacity="0.4" fill="none"/>
<line x1="340" y1="210" x2="470" y2="420" stroke-width="1.5" class="line" opacity="0.4" fill="none"/>
<line x1="210" y1="420" x2="470" y2="420" stroke-width="1.5" class="line" opacity="0.4" fill="none"/>

<line x1="340" y1="210" x2="340" y2="155" stroke-width="1.5" class="line" opacity="0.3" fill="none"/>
<line x1="210" y1="420" x2="148" y2="472" stroke-width="1.5" class="line" opacity="0.3" fill="none"/>
<line x1="470" y1="420" x2="532" y2="368" stroke-width="1.5" class="line" opacity="0.3" fill="none"/>
<line x1="470" y1="420" x2="492" y2="492" stroke-width="1.5" class="line" opacity="0.3" fill="none"/>
<line x1="210" y1="420" x2="168" y2="348" stroke-width="1.5" class="line" opacity="0.3" fill="none"/>

<circle cx="340" cy="155" r="8" class="node" stroke-width="2"/>
<circle cx="148" cy="472" r="8" class="node" stroke-width="2"/>
<circle cx="532" cy="368" r="8" class="node" stroke-width="2"/>
<circle cx="492" cy="492" r="8" class="node" stroke-width="2"/>
<circle cx="168" cy="348" r="8" class="node" stroke-width="2"/>

<circle cx="210" cy="420" r="14" class="node" stroke-width="2.5" opacity="0.85"/>
<circle cx="470" cy="420" r="14" class="node" stroke-width="2.5" opacity="0.85"/>

<circle cx="340" cy="340" r="40" class="pulse" opacity="0.4"/>
<circle cx="340" cy="340" r="28" class="core"/>

<path d="M326 327 L340 312 L354 327" fill="none" stroke="#0f172a" stroke-width="3" stroke-linecap="round" stroke-linejoin="round"/>
<path d="M320 333 L340 313 L360 333" fill="none" stroke="#0f172a" stroke-width="2" stroke-linecap="round" stroke-linejoin="round" opacity="0.4"/>
<circle cx="340" cy="343" r="4" fill="#0f172a"/>
</svg>
